<svg xmlns:dc="http://purl.org/dc/elements/1.1/" xmlns:cc="http://creativecommons.org/ns#" xmlns:rdf="http://www.w3.org/1999/02/22-rdf-syntax-ns#" xmlns:svg="http://www.w3.org/2000/svg" xmlns="http://www.w3.org/2000/svg" viewBox="0 0 244.54668 88" height="88" width="244.54668" xml:space="preserve" id="svg2" version="1.1" xmlns:xlink="http://www.w3.org/1999/xlink">
 <metadata id="metadata8">
  <rdf:RDF>
   <cc:Work rdf:about="">
    <dc:format>
     image/svg+xml
    </dc:format>
    <dc:type rdf:resource="http://purl.org/dc/dcmitype/StillImage">
    </dc:type>
   </cc:Work>
  </rdf:RDF>
 </metadata>
 <defs id="defs6">
  <clipPath id="clipPath20" clipPathUnits="userSpaceOnUse">
   <path id="path18" d="m 331.41,0 h -0.949 C 410.715,0 484.258,28.5742 541.5,76.0586 484.488,28.7617 411.297,0.226563 331.41,0 m -0.949,0 H 329.5 C 228.254,0.285156 137.727,46.0313 77.2969,117.906 L 185.922,272.898 v 0 L 77.3008,117.91 C 137.914,45.8125 228.828,0 330.461,0 M 57.0898,144.531 C 21.2422,197.117 0.226563,260.543 0,328.891 v 2.211 C 0.316406,427.664 42.1719,514.469 108.648,574.629 41.9219,514.238 0,427.004 0,330 0,261.23 21.0508,197.402 57.0898,144.531 v 0 M 508.508,163.27 c -109.168,0 -221.125,65.839 -292.313,152.843 L 414.406,599.004 216.195,316.113 c 71.188,-87.004 183.145,-152.84 292.317,-152.84 29.093,0 54.105,5.34 74.992,15.438 v 0 C 562.617,168.613 537.605,163.27 508.508,163.27 m 117.629,49.238 -200.598,433.617 v 0 L 626.137,212.512 c 0,-0.004 0,-0.004 0,-0.004 M 196.07,342.82 c -34.281,49.746 -55.015,104.528 -55.015,156.993 0,38.253 11.582,79.347 42.402,110.332 -30.82,-30.985 -42.402,-72.079 -42.402,-110.332 0,-52.465 20.738,-107.247 55.019,-156.993 h -0.004 m -45.457,262.293 c 3.895,3.825 7.567,6.684 10.766,8.453 v 0 c -3.199,-1.769 -6.871,-4.625 -10.766,-8.453">
   </path>
  </clipPath>
  <linearGradient id="linearGradient26" spreadMethod="pad" gradientTransform="matrix(606.991,261.57,-261.934,606.149,27.5141,197.937)" gradientUnits="userSpaceOnUse" y2="0" x2="1" y1="0" x1="0">
   <stop id="stop22" offset="0" style="stop-opacity:1;stop-color:#ffffff">
   </stop>
   <stop id="stop24" offset="1" style="stop-opacity:1;stop-color:#ffffff">
   </stop>
  </linearGradient>
  <clipPath id="clipPath36" clipPathUnits="userSpaceOnUse">
   <path id="path34" d="M 330.461,0 V 0 C 228.828,0 137.914,45.8125 77.3008,117.91 L 185.922,272.902 C 267.082,166.246 398.93,93.4453 524.227,93.4453 c 12.757,0 26.64,1.4453 40.757,4.0742 C 557.508,90 549.668,82.8359 541.5,76.0586 484.258,28.5742 410.715,0 330.461,0 M 57.0898,144.531 C 21.0508,197.402 0,261.23 0,330 c 0,97.004 41.9219,184.238 108.648,244.629 16.2,14.656 33.856,27.734 52.731,38.984 v -0.047 c -3.199,-1.769 -6.871,-4.628 -10.766,-8.453 -19.16,-18.836 -43.675,-61.136 -43.675,-112.605 0,-68.539 22.441,-134.258 59.539,-191.887 L 57.0898,144.531 m 451.4222,18.742 c -109.172,0 -221.129,65.836 -292.317,152.84 L 414.41,599.004 583.504,178.711 c -20.887,-10.098 -45.899,-15.438 -74.992,-15.438 m 117.625,49.239 -200.594,433.617 c 135.812,-40.66 234.848,-166.203 235.375,-314.938 0,-49.652 -11.75,-90 -34.781,-118.683 M 196.074,342.82 c -34.281,49.746 -55.019,104.528 -55.019,156.993 0,38.253 11.582,79.347 42.402,110.332 29.352,29.511 76.145,49.855 147,49.855 27.922,0 55.051,-3.449 80.973,-9.957 L 196.07,342.82">
   </path>
  </clipPath>
  <linearGradient id="linearGradient42" spreadMethod="pad" gradientTransform="matrix(606.991,261.57,-261.934,606.149,27.5141,197.937)" gradientUnits="userSpaceOnUse" y2="0" x2="1" y1="0" x1="0">
   <stop id="stop38" offset="0" style="stop-opacity:1;stop-color:#672d89">
   </stop>
   <stop id="stop40" offset="1" style="stop-opacity:1;stop-color:#b64264">
   </stop>
  </linearGradient>
  <clipPath id="clipPath56" clipPathUnits="userSpaceOnUse">
   <path id="path54" d="m 1793,248 v 44 h 41 v -44 z">
   </path>
  </clipPath>
 </defs>
 <g transform="matrix(1.3333333,0,0,-1.3333333,0,88)" id="g10">
  <g transform="scale(0.1)" id="g12">
   <g id="g14">
    <g clip-path="url(#clipPath20)" id="g16">
     <path id="path28" style="fill:url(#linearGradient26);fill-opacity:1;fill-rule:nonzero;stroke:none" d="m 331.41,0 h -0.949 C 410.715,0 484.258,28.5742 541.5,76.0586 484.488,28.7617 411.297,0.226563 331.41,0 m -0.949,0 H 329.5 C 228.254,0.285156 137.727,46.0313 77.2969,117.906 L 185.922,272.898 v 0 L 77.3008,117.91 C 137.914,45.8125 228.828,0 330.461,0 M 57.0898,144.531 C 21.2422,197.117 0.226563,260.543 0,328.891 v 2.211 C 0.316406,427.664 42.1719,514.469 108.648,574.629 41.9219,514.238 0,427.004 0,330 0,261.23 21.0508,197.402 57.0898,144.531 v 0 M 508.508,163.27 c -109.168,0 -221.125,65.839 -292.313,152.843 L 414.406,599.004 216.195,316.113 c 71.188,-87.004 183.145,-152.84 292.317,-152.84 29.093,0 54.105,5.34 74.992,15.438 v 0 C 562.617,168.613 537.605,163.27 508.508,163.27 m 117.629,49.238 -200.598,433.617 v 0 L 626.137,212.512 c 0,-0.004 0,-0.004 0,-0.004 M 196.07,342.82 c -34.281,49.746 -55.015,104.528 -55.015,156.993 0,38.253 11.582,79.347 42.402,110.332 -30.82,-30.985 -42.402,-72.079 -42.402,-110.332 0,-52.465 20.738,-107.247 55.019,-156.993 h -0.004 m -45.457,262.293 c 3.895,3.825 7.567,6.684 10.766,8.453 v 0 c -3.199,-1.769 -6.871,-4.625 -10.766,-8.453">
     </path>
    </g>
   </g>
   <g id="g30">
    <g clip-path="url(#clipPath36)" id="g32">
     <path id="path44" style="fill:url(#linearGradient42);fill-opacity:1;fill-rule:nonzero;stroke:none" d="M 330.461,0 V 0 C 228.828,0 137.914,45.8125 77.3008,117.91 L 185.922,272.902 C 267.082,166.246 398.93,93.4453 524.227,93.4453 c 12.757,0 26.64,1.4453 40.757,4.0742 C 557.508,90 549.668,82.8359 541.5,76.0586 484.258,28.5742 410.715,0 330.461,0 M 57.0898,144.531 C 21.0508,197.402 0,261.23 0,330 c 0,97.004 41.9219,184.238 108.648,244.629 16.2,14.656 33.856,27.734 52.731,38.984 v -0.047 c -3.199,-1.769 -6.871,-4.628 -10.766,-8.453 -19.16,-18.836 -43.675,-61.136 -43.675,-112.605 0,-68.539 22.441,-134.258 59.539,-191.887 L 57.0898,144.531 m 451.4222,18.742 c -109.172,0 -221.129,65.836 -292.317,152.84 L 414.41,599.004 583.504,178.711 c -20.887,-10.098 -45.899,-15.438 -74.992,-15.438 m 117.625,49.239 -200.594,433.617 c 135.812,-40.66 234.848,-166.203 235.375,-314.938 0,-49.652 -11.75,-90 -34.781,-118.683 M 196.074,342.82 c -34.281,49.746 -55.019,104.528 -55.019,156.993 0,38.253 11.582,79.347 42.402,110.332 29.352,29.511 76.145,49.855 147,49.855 27.922,0 55.051,-3.449 80.973,-9.957 L 196.07,342.82">
     </path>
    </g>
   </g>
   <path id="path46" style="fill:#231f20;fill-opacity:1;fill-rule:evenodd;stroke:none" d="m 581.25,32.7617 h 23.82 v -4.5703 h -9.398 V 0.867188 H 590.66 V 28.1914 h -9.41 v 4.5703">
   </path>
   <path id="path48" style="fill:#231f20;fill-opacity:1;fill-rule:evenodd;stroke:none" d="m 638.098,32.7617 h 4.406 l 3.891,-31.894512 h -4.918 L 638.742,23.6406 629.387,4.43359 h -4.168 L 615.805,23.6406 613.07,0.867188 h -4.918 l 3.891,31.894512 h 4.359 l 10.856,-22.7265 10.84,22.7265">
   </path>
   <g id="g50">
    <g clip-path="url(#clipPath56)" id="g52">
     <path id="path58" style="fill:#231f20;fill-opacity:1;fill-rule:nonzero;stroke:none" d="m 1813.86,248.215 h -0.56 c -3.62,0.047 -6.97,1.019 -10.07,2.898 -3.17,1.922 -5.67,4.547 -7.48,7.891 -1.79,3.285 -2.69,6.859 -2.71,10.723 v 0.289 c 0.02,3.832 0.92,7.406 2.7,10.695 1.81,3.34 4.3,5.957 7.49,7.871 3.1,1.863 6.44,2.82 10.01,2.879 h 0.69 c 3.57,-0.059 6.91,-1.016 10,-2.879 3.2,-1.914 5.69,-4.531 7.49,-7.871 1.65,-3.027 2.56,-6.301 2.71,-9.793 v -2.102 c -0.16,-3.531 -1.07,-6.812 -2.75,-9.843 -1.83,-3.36 -4.33,-5.989 -7.5,-7.891 -3.1,-1.855 -6.44,-2.82 -10.02,-2.867 m -0.28,39.637 c -3.06,0 -5.92,-0.774 -8.54,-2.375 -2.66,-1.582 -4.72,-3.758 -6.21,-6.524 -1.52,-2.793 -2.27,-5.808 -2.27,-9.082 0,-3.183 0.72,-6.141 2.15,-8.906 1.44,-2.754 3.5,-4.973 6.12,-6.641 2.66,-1.66 5.57,-2.488 8.75,-2.488 3.16,0 6.07,0.816 8.69,2.488 2.65,1.641 4.69,3.86 6.14,6.614 1.44,2.742 2.16,5.742 2.16,8.933 0,3.195 -0.72,6.172 -2.16,8.914 -1.45,2.754 -3.5,4.945 -6.15,6.586 -2.64,1.649 -5.53,2.481 -8.68,2.481 m 9.42,-29.934 h -4.5 c -0.25,0.664 -0.38,2.539 -0.38,5.613 0,1.465 -0.31,2.524 -0.95,3.176 -0.64,0.645 -1.69,0.969 -3.18,0.969 h -4.58 v -9.758 h -4.36 v 24.578 h 8.13 c 2.97,0 5.28,-0.672 6.93,-2.019 1.66,-1.336 2.47,-3.204 2.47,-5.586 0,-2.149 -1.02,-3.77 -3.09,-4.93 1.11,-0.617 1.88,-1.465 2.34,-2.539 0.44,-1.086 0.67,-2.426 0.67,-4.016 0,-1.59 0.03,-2.715 0.09,-3.359 l 0.41,-1.641 v -0.488 m -13.59,20.742 v -7.121 h 3.71 c 1.46,0 2.68,0.316 3.67,0.91 0.96,0.617 1.45,1.426 1.45,2.453 0,1.344 -0.34,2.301 -1.03,2.871 -0.68,0.575 -1.92,0.868 -3.72,0.887 h -4.08">
     </path>
    </g>
   </g>
   <path id="path60" style="fill:#231f20;fill-opacity:1;fill-rule:evenodd;stroke:none" d="M 927.828,103.27 H 826.605 L 802.563,40.7227 h -41.137 l 94.672,250.5353 h 41.875 L 992.645,40.7227 h -40.79 z m -88.125,34.543 h 75.012 l -37.496,105.085 z">
   </path>
   <path id="path62" style="fill:#231f20;fill-opacity:1;fill-rule:evenodd;stroke:none" d="M 1034.86,291.246 V 40.7109 h 38.61 V 291.246 h -38.61">
   </path>
   <path id="path64" style="fill:#231f20;fill-opacity:1;fill-rule:evenodd;stroke:none" d="m 1352.38,83.25 c -21.84,-28.3594 -56.8,-46.1719 -97.59,-46.1719 -71,0 -126.72,57.4727 -126.72,128.3709 0,71.258 55.72,128.707 126.72,128.707 40.06,0 74.64,-17.449 96.87,-45.093 l -29.86,-23.262 c -16.39,18.535 -39.7,31.269 -67.01,31.269 -49.89,0 -88.11,-41.086 -88.11,-91.621 0,-50.558 38.22,-91.2927 88.11,-91.2927 27.68,0 52.07,12.7382 67.73,32.7387 l 29.86,-23.645">
   </path>
   <path id="path66" style="fill:#231f20;fill-opacity:1;fill-rule:evenodd;stroke:none" d="m 1402.71,291.258 h 100.87 c 54.26,0 76.47,-39.629 76.47,-79.641 0,-40 -22.21,-78.902 -76.47,-78.902 h -61.9 V 40.7227 h -38.97 z m 38.97,-35.645 v -87.625 h 59.71 c 28.04,0 40.05,22.168 40.05,43.629 0,21.086 -11.64,43.996 -38.59,43.996 h -61.17">
   </path>
   <path id="path68" style="fill:#231f20;fill-opacity:1;fill-rule:evenodd;stroke:none" d="m 1748.98,103.27 h -101.22 l -24.02,-62.5473 h -41.16 l 94.67,250.5353 h 41.89 L 1813.8,40.7227 h -40.77 z m -88.1,34.543 h 75.01 l -37.51,105.085 z">
   </path>
  </g>
 </g>
</svg>